# xmcd
#
# Track frame offsets:
#	150
#	15515
#	28095
#	47592
#	66735
#	84002
#	105742
#	121797
#	144955
#	159532
#	175297
#	194930
#	218980
#	235432
#	257157
#
# Disc length: 3650 seconds
#
# Revision: 2
# Processed by: cddbd v1.5.1PL0 Copyright (c) Steve Scherf et al.
# Submitted via: EasyCDDAExtractor 8.0.2.1
#
DISCID=d50e400f
DTITLE=Various Artist - Classic Country Golden '70s
DYEAR=1900
DGENRE=Country
TTITLE0=Dr. Hook - When you're in love with a beautiful woman
TTITLE1=Willie Nelson - Blue Skies
TTITLE2=Mac Davis - Baby don't get hooked on me
TTITLE3=Barbara Mandrell - (If loving you is wrong) I don't want to be right
TTITLE4=Conway Twitty - Hello Darlin'
TTITLE5=Don Williams - It must be love
TTITLE6=Bellamy Brothers - Satin  Sheets
TTITLE7=Dave Dudley - The Pool Shark
TTITLE8=Waylon Jennings - Amanda
TTITLE9=Crystal Gayle - Why have you left the one you left me for
TTITLE10=Sonny James - It's just a matter of time
TTITLE11=Hank Williams jr. - Family tradition
TTITLE12=Porter Wagoner and Dolly Parton - Please don't stop loving me
TTITLE13=Mickey Gilley - Room full of roses
TTITLE14=Ray Stevens - Everything is beautiful
EXTD=
EXTT0=
EXTT1=
EXTT2=
EXTT3=
EXTT4=
EXTT5=
EXTT6=
EXTT7=
EXTT8=
EXTT9=
EXTT10=
EXTT11=
EXTT12=
EXTT13=
EXTT14=
PLAYORDER=
